<?xml version="1.0" encoding="UTF-8" standalone="no"?>
<!-- Created with Inkscape (http://www.inkscape.org/) -->

<svg
   version="1.1"
   id="svg2"
   width="188.976"
   height="188.976"
   viewBox="0 0 188.976 188.976"
   sodipodi:docname="LOGO-UTC.ai"
   xmlns:inkscape="http://www.inkscape.org/namespaces/inkscape"
   xmlns:sodipodi="http://sodipodi.sourceforge.net/DTD/sodipodi-0.dtd"
   xmlns="http://www.w3.org/2000/svg"
   xmlns:svg="http://www.w3.org/2000/svg">
  <defs
     id="defs6">
    <clipPath
       clipPathUnits="userSpaceOnUse"
       id="clipPath16">
      <path
         d="M 0,141.732 H 141.732 V 0 H 0 Z"
         id="path14" />
    </clipPath>
  </defs>
  <sodipodi:namedview
     id="namedview4"
     pagecolor="#ffffff"
     bordercolor="#000000"
     borderopacity="0.25"
     inkscape:showpageshadow="2"
     inkscape:pageopacity="0.0"
     inkscape:pagecheckerboard="0"
     inkscape:deskcolor="#d1d1d1" />
  <g
     id="g8"
     inkscape:groupmode="layer"
     inkscape:label="LOGO-UTC"
     transform="matrix(1.3333333,0,0,-1.3333333,0,188.976)">
    <g
       id="g10">
      <g
         id="g12"
         clip-path="url(#clipPath16)">
        <g
           id="g18"
           transform="translate(100.4971,49.1699)">
          <path
             d="M 0,0 C 0.325,-0.334 1.52,-0.59 1.898,-0.123 1.666,0.225 0.348,0.367 0,0 m 8.568,0.121 c -0.232,-0.09 -0.339,-0.318 -0.55,-0.367 -0.422,-0.098 -0.926,0.068 -1.347,0 -0.368,-0.061 -0.67,-0.285 -1.04,-0.307 -1.013,-0.058 -1.93,0.162 -2.693,0 0.737,-0.433 2.287,-0.095 3.489,-0.181 0.721,-0.055 1.305,-0.168 1.651,0.304 0.797,0.287 2.344,-0.179 2.817,0.43 -0.569,0.439 -1.566,0.412 -2.327,0.121 m -8.874,0.246 c -0.252,0.42 -0.895,0.447 -1.59,0.428 0.011,-0.621 1.058,-0.533 1.59,-0.428 m 23.44,9.852 C 22.826,9.588 22.337,9.139 22.154,8.383 21.926,8.348 21.839,8.168 21.665,8.078 21.705,7.834 21.503,7.832 21.542,7.588 20.036,6.033 18.73,4.279 16.77,3.182 16.618,3.027 16.528,2.809 16.34,2.691 15.819,2.662 15.629,2.301 15.3,2.08 15.104,2.094 15.041,1.971 14.811,2.018 14.572,1.889 14.477,1.619 14.26,1.467 13.534,1.48 13.152,1.146 12.791,0.795 c -0.451,0.07 -1.225,0.078 -1.225,-0.49 0.656,-0.219 1.246,0.136 1.53,0.49 0.763,-0.106 1.108,0.443 1.469,0.611 0.2,0.094 0.462,0.02 0.674,0.123 0.356,0.172 0.579,0.725 1.101,0.672 0.113,0.153 0.186,0.346 0.367,0.43 2.307,1.183 3.782,3.195 5.447,5.017 0.059,0.678 0.714,0.756 0.735,1.469 0.331,0.182 0.655,0.619 0.489,1.102 z m -35.801,0.551 c -0.046,-0.659 0.286,-0.938 0.611,-1.225 0.197,-0.822 0.714,-1.326 1.163,-1.897 0.054,-0.169 0.147,-0.302 0.183,-0.49 C -10.316,6.9 -10.113,6.451 -9.73,6.18 -8.889,4.738 -7.363,3.979 -6.242,2.813 -6.014,2.775 -5.856,2.668 -5.63,2.631 -5.497,2.457 -5.386,2.262 -5.202,2.141 -4.984,2.113 -4.848,2.006 -4.59,2.018 -4.517,1.846 -4.41,1.709 -4.282,1.59 -3.311,1.563 -3.17,0.703 -2.019,0.855 -2.014,1.451 -2.66,1.398 -3.182,1.467 -3.373,1.869 -3.749,2.084 -4.345,2.08 c -0.131,0.195 -0.288,0.363 -0.427,0.551 -0.691,0.045 -0.78,0.689 -1.47,0.734 -1.599,1.461 -3.173,2.946 -4.528,4.651 -0.136,0.638 -0.724,0.826 -0.796,1.529 -0.136,0.131 -0.383,0.148 -0.428,0.367 -10e-4,0.611 -0.262,0.963 -0.612,1.225 -0.06,0.509 -0.035,1.109 -0.613,1.101 -0.125,-0.799 0.191,-1.156 0.552,-1.468 m 37.146,2.507 c -0.387,-0.242 -0.338,-0.923 -0.428,-1.466 -0.363,-0.27 -0.65,-0.616 -0.55,-1.348 0.578,-0.006 0.482,0.66 0.612,1.103 0.487,0.268 0.597,0.913 0.551,1.711 z m -37.758,-0.916 c -10e-4,0.43 0.111,1.442 -0.429,1.53 -0.259,-0.491 -0.144,-1.483 0.429,-1.53 m 38.494,2.938 c -0.568,0.107 -0.549,-1.195 -0.429,-1.776 0.501,0.207 0.551,1.145 0.429,1.776 m -39.228,-0.674 c 0.285,0.547 0.037,1.469 -0.123,1.959 h -0.184 c -0.123,-0.582 -0.31,-1.771 0.307,-1.959 m -0.613,4.102 c 0.068,0.404 0.183,1.302 -0.122,1.529 -0.137,-0.389 -0.357,-1.404 0.122,-1.529 m 10.71,11.564 c -0.545,-0.303 -1.34,-0.53 -1.836,-1.1 -0.215,-0.246 -0.226,-0.531 -0.49,-0.734 -0.764,-0.588 -1.768,-0.821 -2.019,-1.592 -0.193,-0.592 0.024,-0.979 -0.368,-1.225 -0.154,-0.096 -0.469,-0.226 -0.673,0 0.081,0.432 0.394,0.881 0.245,1.348 -0.376,0.355 -0.917,0.017 -1.345,0 -0.224,-0.012 -0.479,0.111 -0.674,0.06 -0.561,-0.148 -0.896,-0.957 -1.163,-1.347 -0.132,-0.19 -0.302,-0.295 -0.367,-0.428 -0.256,-0.525 -0.358,-1.166 -0.55,-1.592 0.93,-0.556 0.896,0.783 1.835,0.613 0.554,-0.841 -0.769,-1.152 -0.735,-1.714 0.018,-0.289 0.61,-0.547 0.673,-0.795 0.27,-1.047 -1.182,-1.742 -0.429,-2.998 0.154,-0.195 0.659,-0.037 0.797,-0.244 0.058,-0.25 0.133,-0.645 -0.123,-0.734 -0.377,0.121 -0.9,-0.102 -1.284,-0.063 -0.103,0.611 -0.405,1.096 -0.429,1.775 -0.015,0.418 0.276,0.831 0.184,1.223 -0.057,0.24 -0.377,0.39 -0.489,0.611 -0.174,0.342 -0.041,0.617 -0.307,0.857 -0.465,-0.156 -0.393,-1.002 -0.307,-1.529 -0.321,-0.37 -0.34,-1.044 -0.305,-1.773 0.603,-0.961 0.082,-2.701 0.49,-3.918 0.086,-0.258 0.29,-0.441 0.366,-0.672 0.14,-0.422 0.049,-0.881 0.185,-1.287 0.17,-0.512 0.797,-0.812 0.612,-1.467 0.317,-0.316 0.623,-0.642 0.61,-1.287 0.184,-0.203 0.427,-0.347 0.552,-0.611 0.064,-0.141 0.038,-0.369 0.122,-0.488 0.272,-0.198 0.471,-0.469 0.551,-0.858 0.997,-1.226 2.075,-2.373 3.121,-3.551 1.442,-0.863 2.509,-2.099 4.284,-2.63 0.183,-0.467 0.818,-0.389 1.286,-0.612 0.234,-0.111 0.361,-0.408 0.612,-0.49 0.383,-0.127 0.813,0.022 1.223,-0.123 C 0.149,0.844 0.314,0.564 0.552,0.488 1.279,0.252 2.169,0.451 2.938,0.305 3.216,0.252 3.469,0.055 3.733,0 4.527,-0.168 5.262,-0.105 5.997,0.121 5.985,1.152 5.158,2.021 4.958,3.182 4.908,3.469 4.956,3.754 4.897,4.037 4.628,5.32 3.48,6.33 3.855,7.955 c 0.077,0.326 0.389,0.508 0.491,0.734 0.418,0.932 0.256,1.963 -0.061,2.936 -0.175,0.533 -0.264,1.189 -0.489,1.594 -0.318,0.564 -0.869,0.902 -0.858,1.713 0.007,0.509 0.431,1.015 0.306,1.589 -0.438,0.745 -1.766,0.602 -2.08,1.469 -0.79,0.19 -0.893,-0.484 -1.47,-0.672 -0.419,-0.136 -0.992,0.045 -1.59,0 -0.461,-0.035 -0.882,-0.3 -1.225,-0.244 -0.322,0.051 -1.282,0.885 -1.529,1.346 -0.084,0.156 -0.056,0.4 -0.122,0.551 -0.323,0.707 -0.995,1.201 -1.225,1.773 -0.118,0.295 -0.269,0.927 -0.245,1.164 0.023,0.226 0.236,0.433 0.307,0.672 0.249,0.843 -0.178,1.902 0,2.693 0.053,0.24 0.343,0.469 0.49,0.797 0.099,0.224 0.093,0.525 0.182,0.732 0.392,0.92 1.208,1.326 1.837,1.899 0.047,0.791 0.62,1.373 0.735,1.898 -0.462,0.615 -0.836,-0.092 -1.225,-0.308 m 22.032,0.673 c 0.358,-0.263 1.439,-0.091 1.957,-0.121 0.053,0.746 -2.267,1.155 -1.957,0.121 m -3.918,0 c -0.31,0.27 -0.727,1.004 -1.04,0.797 -0.306,-0.205 -0.836,-0.109 -1.101,-0.185 -0.345,-0.096 -0.923,-0.629 -0.857,-1.039 0.078,-0.483 1.081,-0.579 1.102,-1.346 0.009,-0.361 -0.48,-0.699 -0.428,-1.162 0.028,-0.268 0.406,-0.551 0.55,-0.86 0.111,-0.238 0.113,-0.578 0.244,-0.855 0.151,-0.318 0.372,-0.473 0.428,-0.734 0.06,-0.274 -0.019,-0.549 0.062,-0.795 0.114,-0.35 0.456,-0.565 0.613,-0.858 0.271,-0.51 0.356,-0.943 0.549,-1.347 0.391,-0.379 0.831,-0.532 1.102,-1.039 0.128,-0.239 0.16,-0.711 0.368,-0.858 0.739,-0.523 1.319,0.67 2.447,0.367 0.686,-0.874 -0.254,-1.734 -0.305,-2.63 -0.411,-0.256 -0.4,-0.725 -0.613,-1.102 -0.6,-1.074 -1.692,-1.779 -2.447,-2.693 -0.282,-0.887 -0.698,-1.27 -0.734,-2.08 -0.031,-0.678 0.346,-1.258 0.427,-2.02 0.048,-0.439 -0.167,-0.912 -0.182,-1.468 -0.01,-0.342 0.103,-0.696 0.06,-0.979 -0.136,-0.9 -1.87,-1.359 -2.019,-2.265 -0.088,-0.53 0.215,-1.071 0.123,-1.53 C 12.437,3.736 11.742,3.504 11.506,2.936 11.372,2.611 11.451,2.248 11.322,1.957 11.17,1.615 10.636,1.35 10.772,0.855 c 1.206,-0.119 1.96,0.729 3.121,0.858 0.248,0.342 0.628,0.555 1.163,0.611 0.244,0.287 0.524,0.535 0.979,0.612 0.215,0.072 0.225,0.347 0.428,0.429 0.11,0.114 0.309,0.139 0.489,0.182 1.65,1.494 3.411,2.875 4.59,4.836 0.158,0.107 0.264,0.265 0.429,0.367 -0.032,0.566 0.43,0.762 0.613,1.039 0.088,0.141 0.074,0.42 0.183,0.613 0.154,0.278 0.434,0.446 0.49,0.612 0.066,0.201 -0.018,0.42 0.06,0.611 0.118,0.295 0.449,0.48 0.551,0.797 0.086,0.266 -0.021,0.557 0.061,0.855 0.09,0.327 0.456,0.584 0.55,0.92 0.124,0.432 -0.013,0.928 0.062,1.407 0.053,0.33 0.284,0.642 0.366,0.98 0.387,1.576 0.191,3.432 0.063,5.201 -0.314,0.115 -0.713,-0.065 -1.164,0 -0.627,0.275 -0.686,1.056 -1.039,1.591 -0.295,0.446 -0.771,0.803 -1.04,1.286 -0.154,0.271 -0.198,0.627 -0.368,0.855 -0.297,0.4 -0.726,0.565 -0.979,0.981 -0.368,0.605 -0.609,1.459 -0.612,2.386 -0.821,0.317 -1.729,0.752 -2.694,0.735 -0.52,0.213 -0.804,0.662 -1.284,0.918 -0.298,-0.071 -0.264,-0.471 -0.673,-0.428 -0.217,0.365 -0.617,0.596 -0.919,0.855 M 0.552,31.517 C 0.412,31.302 0.288,30.906 0.429,30.599 0.258,30.298 0.045,30.044 -0.489,30.109 c -0.271,-0.424 -0.88,-0.506 -1.346,-0.734 0.238,-0.899 1.214,-1.051 1.898,-1.592 0.447,-0.358 0.71,-0.924 1.039,-1.102 0.981,-0.533 1.41,0.42 2.204,0.858 -0.305,0.726 0.178,2.043 -0.184,2.875 -0.15,0.345 -0.499,0.39 -0.49,0.734 0.009,0.31 0.368,0.385 0.367,0.613 -0.736,0.414 -1.897,0.088 -2.447,-0.244 m -5.386,2.815 c -0.216,-0.096 -0.812,-0.526 -0.796,-0.735 0.026,-0.34 0.853,-0.562 1.285,-0.367 0.401,0.178 0.489,0.797 0.735,0.978 -0.161,0.37 -0.855,0.286 -1.224,0.124 m 3.121,-0.124 c 0.039,0.346 -0.134,0.479 -0.245,0.672 -0.957,0.157 -0.284,-1.06 0.245,-0.672 m 16.462,0.124 c 0.386,0.021 0.694,0.121 0.858,0.365 -0.004,1.213 -1.116,0.746 -0.858,-0.365 m -1.653,3.609 c 0.244,-0.348 0.842,-0.34 1.347,-0.428 0.004,-0.221 0.153,-0.297 0.184,-0.49 1.015,-0.311 1.493,-1.158 2.51,-1.469 1.581,-1.519 3.383,-2.816 4.467,-4.834 0.116,-0.129 0.352,-0.138 0.428,-0.306 0.012,-0.454 0.422,-0.684 0.612,-1.039 0.089,-0.168 0.087,-0.383 0.183,-0.553 0.218,-0.383 0.692,-0.649 0.613,-1.283 0.103,-0.264 0.466,-0.268 0.55,-0.551 -0.038,-1.488 0.843,-2.057 0.735,-3.612 0.835,-0.824 0.612,-2.843 0.612,-4.528 0,-0.963 -0.144,-1.961 0.184,-2.631 0.238,0.336 0.34,0.988 0.366,1.65 0.075,1.856 0.162,4.558 -0.672,5.265 0.162,0.868 0.049,2.211 -0.551,2.692 0.024,0.82 -0.228,1.363 -0.613,1.775 0.056,0.668 -0.371,0.852 -0.611,1.223 -0.513,1.773 -1.751,2.82 -2.632,4.224 -0.727,0.537 -1.33,1.198 -1.898,1.897 -1.243,0.857 -2.513,1.689 -3.733,2.57 -0.272,-0.049 -0.366,0.082 -0.612,0.061 -0.214,0.498 -0.818,0.609 -1.529,0.611 -0.005,-0.103 0.014,-0.187 0.06,-0.244 M -4.282,37.453 C -4.393,37.255 -4.53,37.089 -4.713,36.962 -5.474,36.99 -5.5,36.281 -6.18,36.228 c -1.09,-1.195 -2.704,-1.867 -3.488,-3.365 -0.737,-0.387 -0.973,-1.274 -1.592,-1.776 -0.144,-0.691 -0.708,-0.964 -0.857,-1.652 -0.287,-0.283 -0.517,-0.625 -0.55,-1.162 -0.105,-0.182 -0.312,-0.26 -0.429,-0.43 -0.043,-0.322 -0.169,-0.564 -0.123,-0.978 -0.495,-0.362 -0.689,-1.026 -0.611,-1.959 -0.594,-0.473 -0.669,-1.815 -0.49,-2.694 0.792,0.315 0.42,1.481 0.674,2.204 0.163,0.466 0.722,1.017 0.55,1.775 0.639,0.4 0.391,1.689 1.102,2.019 -0.035,0.852 0.668,0.965 0.734,1.713 0.632,0.838 1.288,1.651 1.837,2.571 0.934,0.474 1.268,1.547 2.264,1.959 0.201,0.531 0.762,0.707 0.979,1.224 0.456,0.049 0.647,0.367 0.917,0.551 0.199,0.135 0.475,0.139 0.613,0.244 0.205,0.158 0.176,0.373 0.427,0.49 0.138,0.065 0.375,-0.002 0.552,0.061 0.278,0.1 0.496,0.447 0.734,0.551 0.299,0.131 0.927,-0.016 0.918,0.551 -1.031,0.292 -1.321,-0.674 -2.263,-0.672 m 2.386,0.795 c 0.575,-0.106 1.448,-0.036 1.59,0.49 -0.675,-0.02 -1.511,0.123 -1.59,-0.49 m 13.402,0.367 c 0.15,-0.438 0.835,-0.471 1.347,-0.367 0.045,0.546 -1.065,0.736 -1.347,0.367 m 1.469,-1.162 c -0.375,0.673 -1.267,0.41 -1.898,0.672 -0.192,0.082 -0.3,0.298 -0.49,0.367 -0.701,0.261 -1.87,0.056 -2.753,0.306 -0.28,0.078 -0.438,0.272 -0.673,0.307 -0.401,0.057 -0.772,-0.123 -1.164,-0.123 -0.633,0 -1.595,0.221 -2.264,0.123 C 3.462,39.064 3.278,38.814 2.999,38.738 2.232,38.527 1.383,38.73 0.552,38.552 0.173,37.964 -0.684,38.189 -1.346,37.941 -1.584,37.853 -1.75,37.542 -2.019,37.453 c -0.17,-0.061 -0.446,0.005 -0.613,-0.063 -0.271,-0.109 -0.413,-0.424 -0.672,-0.549 -0.17,-0.084 -0.44,-0.05 -0.612,-0.123 -0.246,-0.105 -0.396,-0.353 -0.611,-0.49 -0.51,-0.322 -1.102,-0.527 -1.408,-0.978 0.35,-0.409 0.932,0.041 1.53,-0.063 0.179,0.934 3.888,0.908 4.161,0.184 0.301,-0.799 -0.609,-0.993 -0.367,-1.774 0.254,-0.236 0.763,-0.215 0.856,-0.613 -0.292,-0.748 -1.645,-0.434 -1.714,-1.408 0.275,-0.25 0.681,-0.018 1.103,-0.059 0.641,0.902 1.895,0.998 3.304,0.733 0.314,0.052 0.304,0.429 0.735,0.369 0.492,-0.182 0.088,-1.258 0.306,-1.715 1.078,0.025 1.68,-1.129 2.753,-1.102 0.171,1.541 1.078,0.582 2.02,0.612 0.086,0.732 -0.174,1.599 0.551,1.775 0.454,0.109 0.994,-0.377 1.407,0.061 0.096,0.523 -0.508,0.349 -0.489,0.796 0.525,0.883 2.229,0.586 2.509,1.713 -0.22,0.418 -0.773,0.219 -0.795,0.735 -0.04,0.916 2.063,0.64 2.081,1.652 -0.224,0.225 -0.623,0.275 -1.041,0.307 m -3.917,1.773 c 0.274,-0.42 1.522,-0.6 1.897,-0.184 -0.299,0.389 -1.384,0.385 -1.897,0.184 m -9.18,-0.367 c 0.703,0.072 1.773,-0.221 1.959,0.367 -0.561,0.252 -1.703,0.209 -1.959,-0.367 m 3.855,0.98 C 3.538,39.82 3.306,39.773 3.183,39.595 4.574,39.531 6.544,39.414 7.834,39.654 6.737,39.818 4.951,39.958 3.733,39.839 m 11.874,-2.203 c 0.612,-0.51 1.292,-0.953 2.08,-1.285 0.4,-0.498 0.826,-0.971 1.53,-1.164 0.038,-0.187 0.131,-0.318 0.183,-0.49 0.52,-0.166 0.742,-0.78 1.163,-1.162 0.105,-0.094 0.329,-0.082 0.428,-0.184 0.207,-0.207 0.45,-0.582 0.674,-0.857 0.484,-0.594 0.774,-1.151 1.224,-1.834 0.349,-0.532 0.524,-0.725 0.796,-1.409 0.101,-0.257 0.402,-0.447 0.489,-0.673 0.059,-0.155 -0.008,-0.391 0.061,-0.549 0.119,-0.272 0.45,-0.459 0.551,-0.737 0.112,-0.306 0.021,-0.675 0.121,-0.978 0.095,-0.279 0.403,-0.471 0.49,-0.734 0.209,-0.623 -0.046,-1.387 0.49,-1.899 C 26.049,21.755 26.238,18.74 26.071,16.4 26.025,15.758 25.757,15.352 25.582,14.809 25.423,14.318 25.528,13.785 25.397,13.34 25.238,12.801 24.644,12.332 24.786,11.625 24.465,11.316 24.184,10.963 24.174,10.342 24.053,10.135 23.823,10.039 23.685,9.852 23.684,9.588 23.542,9.463 23.563,9.18 23.062,8.658 22.627,8.074 22.339,7.344 21.368,6.129 20.216,5.1 19.217,3.916 18.452,3.498 17.969,2.797 17.137,2.445 16.948,2.33 16.859,2.111 16.707,1.957 15.906,1.637 15.119,1.303 14.565,0.732 13.947,0.838 13.574,0.432 13.158,0.244 12.549,-0.031 11.877,0.094 11.566,-0.49 10.262,-0.479 8.985,-0.986 7.467,-1.104 c -1.313,-0.101 -2.763,-0.07 -4.039,0 -1.302,0.073 -2.458,0.491 -3.55,0.551 -0.252,0.014 -0.608,0.387 -0.857,0.553 -0.748,-0.115 -1.16,0.465 -1.653,0.611 -0.551,0.164 -0.99,0.045 -1.222,0.551 -0.775,0.063 -0.909,0.764 -1.714,0.795 -1.418,1.266 -2.996,2.166 -4.223,3.672 -0.169,0.207 -0.311,0.402 -0.49,0.613 -0.669,0.778 -1.477,1.789 -1.897,2.815 -0.621,0.42 -0.663,1.418 -1.163,1.957 0.09,0.543 -0.412,0.849 -0.612,1.347 -0.121,0.303 -0.026,0.631 -0.122,0.979 -0.073,0.267 -0.333,0.455 -0.428,0.734 -0.204,0.604 -0.105,1.498 -0.307,2.203 -0.075,0.266 -0.266,0.516 -0.305,0.735 -0.073,0.402 0.034,0.851 0,1.285 -0.094,1.174 -0.202,2.546 0,3.671 0.04,0.225 0.226,0.362 0.305,0.612 0.195,0.613 0.084,1.398 0.246,2.019 0.063,0.242 0.278,0.41 0.366,0.674 0.127,0.375 0.066,0.853 0.185,1.225 0.097,0.304 0.377,0.464 0.489,0.734 0.094,0.228 0.032,0.519 0.123,0.734 0.198,0.475 0.794,0.75 0.611,1.346 0.755,0.996 1.408,2.002 2.143,2.998 0.239,0.326 0.556,0.559 0.794,0.857 0.168,0.211 0.198,0.485 0.368,0.674 0.47,0.524 1.199,0.803 1.529,1.469 0.188,-0.045 0.224,0.063 0.368,0.061 0.419,0.537 1.025,0.847 1.653,1.285 0.132,0.094 0.235,0.295 0.367,0.367 0.134,0.076 0.352,0.041 0.489,0.123 0.221,0.133 0.371,0.418 0.611,0.551 0.57,0.312 1.252,0.457 1.836,0.734 0.242,0.113 0.419,0.399 0.674,0.49 0.251,0.09 0.524,0 0.796,0.061 0.373,0.084 0.646,0.391 0.979,0.488 0.513,0.155 1.154,0.078 1.713,0.246 0.344,0.104 0.653,0.367 0.979,0.428 0.456,0.086 1.31,0.084 1.898,0.063 1.459,-0.057 3.306,0.162 4.59,-0.184 0.282,-0.076 0.52,-0.287 0.796,-0.369 0.561,-0.164 1.151,-0.096 1.652,-0.244 0.24,-0.071 0.434,-0.291 0.673,-0.368 0.299,-0.091 0.601,-0.027 0.857,-0.121 0.3,-0.111 0.472,-0.408 0.796,-0.55 0.218,-0.098 0.467,-0.039 0.672,-0.123 0.387,-0.159 0.645,-0.612 1.164,-0.612"
             style="fill:#d1cbc5;fill-opacity:1;fill-rule:evenodd;stroke:none"
             id="path20" />
        </g>
        <g
           id="g22"
           transform="translate(108.3311,88.8237)">
          <path
             d="m 0,0 c -1.29,-0.24 -3.26,-0.123 -4.651,-0.059 0.123,0.178 0.355,0.225 0.55,0.245 C -2.883,0.305 -1.097,0.164 0,0"
             style="fill:#7b7b7d;fill-opacity:1;fill-rule:evenodd;stroke:none"
             id="path24" />
        </g>
        <g
           id="g26"
           transform="translate(102.334,88.396)">
          <path
             d="M 0,0 C -0.186,-0.588 -1.256,-0.295 -1.959,-0.367 -1.703,0.209 -0.561,0.252 0,0"
             style="fill:#7b7b7d;fill-opacity:1;fill-rule:evenodd;stroke:none"
             id="path28" />
        </g>
        <g
           id="g30"
           transform="translate(111.4521,88.2124)">
          <path
             d="M 0,0 C -0.375,-0.416 -1.623,-0.236 -1.897,0.184 -1.384,0.385 -0.299,0.389 0,0"
             style="fill:#7b7b7d;fill-opacity:1;fill-rule:evenodd;stroke:none"
             id="path32" />
        </g>
        <g
           id="g34"
           transform="translate(100.9258,85.7046)">
          <path
             d="M 0,0 C -0.075,-0.191 -0.284,-0.248 -0.244,-0.553 -0.01,-0.787 0.44,-0.805 0.613,-1.102 0.66,-1.375 0.531,-1.471 0.551,-1.715 c 0.224,-0.244 0.438,-0.5 0.796,-0.611 0.597,0.152 0.994,0.724 1.713,0.855 0.433,0.08 0.884,-0.068 1.286,0.123 0.37,0.178 0.577,0.702 0.917,0.981 0.271,0.221 0.538,0.162 0.674,0.488 C 4.409,1.107 1.808,0.383 0,0 m 13.587,0.611 c -0.018,-1.011 -2.121,-0.736 -2.081,-1.652 0.022,-0.516 0.575,-0.316 0.796,-0.734 -0.281,-1.127 -1.985,-0.83 -2.51,-1.713 -0.019,-0.448 0.585,-0.274 0.489,-0.797 C 9.868,-4.723 9.328,-4.236 8.874,-4.346 8.149,-4.521 8.409,-5.389 8.323,-6.121 7.381,-6.15 6.475,-5.191 6.304,-6.732 5.23,-6.76 4.628,-5.605 3.55,-5.631 3.332,-5.174 3.736,-4.098 3.244,-3.916 2.813,-3.855 2.823,-4.232 2.509,-4.285 c -1.408,0.265 -2.662,0.17 -3.304,-0.733 -0.422,0.041 -0.828,-0.191 -1.102,0.059 0.068,0.975 1.421,0.66 1.713,1.408 -0.092,0.399 -0.602,0.377 -0.856,0.613 -0.241,0.782 0.668,0.975 0.367,1.774 -0.272,0.725 -3.981,0.75 -4.161,-0.184 -0.598,0.104 -1.18,-0.345 -1.529,0.063 0.305,0.451 0.897,0.656 1.407,0.978 0.216,0.137 0.365,0.385 0.611,0.491 0.172,0.072 0.443,0.039 0.613,0.123 0.258,0.125 0.4,0.439 0.671,0.548 0.167,0.069 0.443,0.002 0.614,0.063 0.268,0.09 0.434,0.4 0.673,0.488 0.662,0.248 1.518,0.024 1.897,0.612 C 0.954,2.195 1.804,1.992 2.57,2.203 2.85,2.279 3.033,2.529 3.305,2.57 3.974,2.668 4.936,2.447 5.568,2.447 5.96,2.447 6.331,2.627 6.732,2.57 6.968,2.535 7.125,2.342 7.405,2.264 8.288,2.014 9.457,2.219 10.158,1.957 10.349,1.889 10.456,1.672 10.648,1.59 11.279,1.328 12.171,1.592 12.546,0.918 12.964,0.887 13.363,0.836 13.587,0.611"
             style="fill:#ffffff;fill-opacity:1;fill-rule:evenodd;stroke:none"
             id="path36" />
        </g>
        <g
           id="g38"
           transform="translate(113.3496,87.4175)">
          <path
             d="M 0,0 C -0.512,-0.104 -1.196,-0.07 -1.347,0.367 -1.064,0.736 0.046,0.547 0,0"
             style="fill:#7b7b7d;fill-opacity:1;fill-rule:evenodd;stroke:none"
             id="path40" />
        </g>
        <g
           id="g42"
           transform="translate(100.1914,87.9077)">
          <path
             d="M 0,0 C -0.143,-0.525 -1.016,-0.596 -1.591,-0.49 -1.512,0.123 -0.676,-0.02 0,0"
             style="fill:#7b7b7d;fill-opacity:1;fill-rule:evenodd;stroke:none"
             id="path44" />
        </g>
        <g
           id="g46"
           transform="translate(98.4785,87.2944)">
          <path
             d="m 0,0 c 0.009,-0.566 -0.619,-0.42 -0.918,-0.551 -0.238,-0.103 -0.456,-0.451 -0.734,-0.551 -0.177,-0.062 -0.414,0.004 -0.552,-0.06 -0.251,-0.117 -0.223,-0.332 -0.428,-0.49 -0.138,-0.106 -0.414,-0.11 -0.612,-0.244 -0.271,-0.184 -0.461,-0.502 -0.917,-0.551 -0.218,-0.518 -0.778,-0.694 -0.98,-1.225 -0.996,-0.412 -1.33,-1.484 -2.263,-1.959 -0.549,-0.92 -1.205,-1.732 -1.837,-2.57 -0.067,-0.748 -0.77,-0.862 -0.735,-1.713 -0.711,-0.33 -0.462,-1.619 -1.101,-2.02 0.172,-0.757 -0.388,-1.308 -0.551,-1.775 -0.254,-0.723 0.118,-1.889 -0.674,-2.203 -0.178,0.879 -0.103,2.221 0.49,2.693 -0.078,0.934 0.117,1.598 0.612,1.959 -0.046,0.414 0.08,0.656 0.123,0.979 0.116,0.17 0.323,0.248 0.429,0.429 0.033,0.538 0.262,0.879 0.549,1.163 0.15,0.687 0.713,0.96 0.858,1.652 0.619,0.502 0.854,1.389 1.592,1.775 0.784,1.498 2.398,2.17 3.488,3.366 0.68,0.052 0.706,0.761 1.467,0.734 0.182,0.127 0.32,0.293 0.43,0.49 C -1.321,-0.674 -1.031,0.293 0,0"
             style="fill:#7b7b7d;fill-opacity:1;fill-rule:evenodd;stroke:none"
             id="path48" />
        </g>
        <g
           id="g50"
           transform="translate(113.5332,87.355)">
          <path
             d="m 0,0 c 0.711,-0.002 1.314,-0.113 1.529,-0.611 0.245,0.021 0.34,-0.11 0.612,-0.061 1.22,-0.881 2.49,-1.713 3.733,-2.57 0.567,-0.699 1.171,-1.36 1.897,-1.897 0.882,-1.404 2.12,-2.451 2.633,-4.224 0.24,-0.371 0.667,-0.555 0.611,-1.223 0.384,-0.412 0.636,-0.955 0.613,-1.775 0.6,-0.481 0.713,-1.825 0.551,-2.692 0.834,-0.707 0.747,-3.409 0.672,-5.265 -0.026,-0.662 -0.128,-1.314 -0.367,-1.65 -0.327,0.67 -0.183,1.668 -0.183,2.631 0,1.685 0.222,3.704 -0.613,4.528 0.109,1.555 -0.772,2.123 -0.734,3.612 -0.084,0.283 -0.447,0.287 -0.55,0.551 0.078,0.634 -0.395,0.9 -0.613,1.283 -0.096,0.17 -0.094,0.384 -0.184,0.552 -0.189,0.356 -0.599,0.586 -0.611,1.04 C 8.92,-7.604 8.684,-7.594 8.568,-7.465 7.483,-5.447 5.682,-4.15 4.101,-2.631 3.084,-2.32 2.605,-1.473 1.591,-1.162 1.56,-0.969 1.411,-0.893 1.407,-0.672 0.902,-0.584 0.304,-0.592 0.06,-0.244 0.014,-0.188 -0.005,-0.104 0,0"
             style="fill:#7b7b7d;fill-opacity:1;fill-rule:evenodd;stroke:none"
             id="path52" />
        </g>
        <g
           id="g54"
           transform="translate(106.8623,85.8257)">
          <path
             d="m 0,0 c -0.136,-0.326 -0.402,-0.268 -0.674,-0.488 -0.34,-0.28 -0.547,-0.803 -0.917,-0.981 -0.401,-0.191 -0.852,-0.043 -1.286,-0.123 -0.719,-0.131 -1.115,-0.703 -1.713,-0.855 -0.357,0.111 -0.571,0.367 -0.796,0.611 -0.019,0.244 0.11,0.34 0.063,0.613 -0.173,0.297 -0.623,0.315 -0.858,0.549 -0.04,0.305 0.169,0.361 0.244,0.553 C -4.129,0.262 -1.527,0.986 0,0"
             style="fill:#d1cbc5;fill-opacity:1;fill-rule:evenodd;stroke:none"
             id="path56" />
        </g>
        <g
           id="g58"
           transform="translate(116.1045,83.8667)">
          <path
             d="M 0,0 C -0.164,-0.244 -0.473,-0.344 -0.858,-0.365 -1.116,0.746 -0.005,1.213 0,0"
             style="fill:#ffffff;fill-opacity:1;fill-rule:evenodd;stroke:none"
             id="path60" />
        </g>
        <g
           id="g62"
           transform="translate(98.5391,84.0503)">
          <path
             d="M 0,0 C 0.111,-0.193 0.284,-0.326 0.245,-0.672 -0.284,-1.061 -0.957,0.156 0,0"
             style="fill:#ffffff;fill-opacity:1;fill-rule:evenodd;stroke:none"
             id="path64" />
        </g>
        <g
           id="g66"
           transform="translate(96.8867,83.3784)">
          <path
             d="m 0,0 c -0.246,-0.182 -0.334,-0.801 -0.734,-0.979 -0.433,-0.195 -1.26,0.028 -1.286,0.368 -0.015,0.209 0.581,0.638 0.796,0.734 C -0.854,0.285 -0.161,0.369 0,0"
             style="fill:#ffffff;fill-opacity:1;fill-rule:evenodd;stroke:none"
             id="path68" />
        </g>
        <g
           id="g70"
           transform="translate(102.3955,80.7456)">
          <path
             d="M 0,0 C -0.063,-0.205 0.189,-0.094 0.306,-0.121 0.314,0.125 0.149,0.041 0,0 M 1.101,0.186 C 1.102,-0.043 0.742,-0.117 0.733,-0.428 0.725,-0.771 1.073,-0.816 1.224,-1.162 1.586,-1.994 1.103,-3.311 1.407,-4.037 0.613,-4.475 0.185,-5.428 -0.797,-4.895 c -0.328,0.178 -0.592,0.745 -1.039,1.102 -0.684,0.541 -1.659,0.693 -1.897,1.592 0.465,0.228 1.075,0.31 1.345,0.734 0.534,-0.064 0.747,0.19 0.918,0.49 -0.14,0.307 -0.016,0.704 0.123,0.918 0.55,0.332 1.711,0.659 2.448,0.245"
             style="fill:#7b7b7d;fill-opacity:1;fill-rule:evenodd;stroke:none"
             id="path72" />
        </g>
        <g
           id="g74"
           transform="translate(115.6143,79.2788)">
          <path
             d="M 0,0 C 0.409,-0.043 0.375,0.357 0.673,0.428 1.152,0.172 1.437,-0.277 1.957,-0.49 2.922,-0.473 3.83,-0.908 4.65,-1.225 c 0.003,-0.927 0.245,-1.781 0.613,-2.386 0.253,-0.416 0.681,-0.58 0.979,-0.981 0.17,-0.228 0.214,-0.584 0.367,-0.855 0.27,-0.483 0.745,-0.84 1.04,-1.285 0.354,-0.536 0.413,-1.317 1.039,-1.592 0.452,-0.065 0.851,0.115 1.165,0 0.127,-1.769 0.324,-3.625 -0.063,-5.201 -0.082,-0.338 -0.313,-0.65 -0.366,-0.98 -0.075,-0.479 0.061,-0.975 -0.062,-1.407 -0.094,-0.336 -0.461,-0.593 -0.55,-0.92 -0.083,-0.298 0.025,-0.589 -0.061,-0.855 -0.103,-0.316 -0.434,-0.502 -0.551,-0.797 -0.078,-0.191 0.006,-0.41 -0.06,-0.611 -0.056,-0.166 -0.336,-0.334 -0.491,-0.612 -0.108,-0.193 -0.094,-0.472 -0.182,-0.613 -0.183,-0.277 -0.645,-0.472 -0.613,-1.039 -0.166,-0.101 -0.271,-0.26 -0.429,-0.367 -1.179,-1.961 -2.941,-3.342 -4.59,-4.836 -0.18,-0.043 -0.379,-0.068 -0.489,-0.182 -0.203,-0.082 -0.213,-0.357 -0.428,-0.429 -0.455,-0.077 -0.735,-0.325 -0.98,-0.612 -0.534,-0.056 -0.915,-0.269 -1.163,-0.611 -1.16,-0.129 -1.915,-0.977 -3.12,-0.857 -0.136,0.494 0.398,0.759 0.55,1.101 0.129,0.291 0.05,0.654 0.184,0.979 0.236,0.568 0.93,0.8 1.041,1.347 0.091,0.459 -0.211,1 -0.123,1.53 0.149,0.906 1.882,1.365 2.019,2.265 0.043,0.283 -0.07,0.637 -0.06,0.979 0.015,0.556 0.23,1.029 0.182,1.469 -0.081,0.761 -0.458,1.341 -0.427,2.019 0.036,0.811 0.452,1.193 0.734,2.08 0.755,0.914 1.847,1.619 2.447,2.693 0.213,0.377 0.201,0.846 0.612,1.102 0.052,0.897 0.992,1.756 0.306,2.63 -1.128,0.303 -1.708,-0.89 -2.447,-0.367 -0.208,0.147 -0.24,0.619 -0.368,0.858 -0.271,0.507 -0.711,0.66 -1.102,1.039 -0.193,0.404 -0.278,0.838 -0.55,1.347 -0.156,0.293 -0.498,0.508 -0.612,0.858 -0.081,0.246 -0.002,0.521 -0.062,0.795 -0.056,0.261 -0.277,0.416 -0.428,0.734 -0.131,0.277 -0.133,0.617 -0.244,0.856 -0.144,0.308 -0.522,0.591 -0.55,0.859 -0.052,0.463 0.436,0.801 0.428,1.162 -0.021,0.768 -1.024,0.863 -1.102,1.346 -0.066,0.41 0.512,0.943 0.856,1.039 0.266,0.076 0.795,-0.02 1.102,0.185 0.313,0.207 0.73,-0.527 1.04,-0.797 C -0.617,0.596 -0.217,0.365 0,0"
             style="fill:#ffffff;fill-opacity:1;fill-rule:evenodd;stroke:none"
             id="path76" />
        </g>
        <g
           id="g78"
           transform="translate(102.7012,80.6245)">
          <path
             d="M 0,0 C -0.116,0.027 -0.369,-0.084 -0.306,0.121 -0.156,0.162 0.009,0.246 0,0"
             style="fill:#727274;fill-opacity:1;fill-rule:evenodd;stroke:none"
             id="path80" />
        </g>
        <g
           id="g82"
           transform="translate(120.5703,80.0132)">
          <path
             d="M 0,0 C -0.519,0.029 -1.6,-0.143 -1.957,0.121 -2.268,1.154 0.053,0.746 0,0"
             style="fill:#ffffff;fill-opacity:1;fill-rule:evenodd;stroke:none"
             id="path84" />
        </g>
        <g
           id="g86"
           transform="translate(91.7461,71.0151)">
          <path
             d="M 0,0 C 0.632,-0.619 2.237,0.063 1.529,0.98 0.681,1.492 0.238,0.635 0,0 M 6.06,8.754 C 5.945,8.229 5.372,7.646 5.325,6.855 4.696,6.283 3.88,5.877 3.488,4.957 3.399,4.75 3.405,4.449 3.306,4.225 3.159,3.896 2.869,3.668 2.816,3.428 2.638,2.637 3.065,1.578 2.816,0.734 2.745,0.496 2.532,0.289 2.509,0.063 c -0.024,-0.237 0.127,-0.87 0.245,-1.165 0.23,-0.571 0.902,-1.065 1.225,-1.773 0.066,-0.15 0.038,-0.394 0.122,-0.55 0.247,-0.461 1.207,-1.295 1.529,-1.346 0.343,-0.057 0.764,0.209 1.224,0.244 0.599,0.045 1.172,-0.137 1.591,0 0.577,0.188 0.68,0.861 1.47,0.672 0.314,-0.867 1.642,-0.725 2.08,-1.469 0.125,-0.574 -0.299,-1.08 -0.307,-1.59 -0.01,-0.81 0.541,-1.148 0.859,-1.712 0.225,-0.405 0.314,-1.061 0.489,-1.594 0.317,-0.973 0.479,-2.004 0.061,-2.936 -0.102,-0.226 -0.414,-0.408 -0.491,-0.734 -0.375,-1.625 0.773,-2.635 1.042,-3.918 0.059,-0.283 0.011,-0.568 0.061,-0.856 0.2,-1.16 1.027,-2.029 1.039,-3.06 -0.735,-0.227 -1.47,-0.289 -2.264,-0.121 -0.264,0.054 -0.517,0.252 -0.796,0.304 -0.768,0.147 -1.658,-0.052 -2.385,0.184 -0.238,0.076 -0.403,0.356 -0.613,0.428 -0.41,0.144 -0.84,-0.004 -1.223,0.123 -0.251,0.082 -0.378,0.379 -0.613,0.49 -0.467,0.223 -1.102,0.145 -1.285,0.611 -1.775,0.532 -2.842,1.768 -4.284,2.631 -1.046,1.178 -2.124,2.324 -3.121,3.551 -0.08,0.389 -0.279,0.66 -0.551,0.857 -0.084,0.12 -0.058,0.348 -0.122,0.489 -0.125,0.263 -0.368,0.408 -0.552,0.611 0.013,0.645 -0.293,0.971 -0.61,1.287 0.185,0.654 -0.442,0.955 -0.612,1.467 -0.136,0.406 -0.045,0.865 -0.185,1.287 -0.076,0.231 -0.28,0.414 -0.366,0.672 -0.408,1.217 0.113,2.957 -0.49,3.918 -0.035,0.728 -0.016,1.402 0.305,1.773 -0.086,0.527 -0.158,1.373 0.307,1.529 0.266,-0.24 0.133,-0.515 0.307,-0.857 0.112,-0.221 0.432,-0.371 0.489,-0.612 0.092,-0.392 -0.199,-0.804 -0.184,-1.222 0.024,-0.679 0.326,-1.164 0.429,-1.775 0.384,-0.039 0.907,0.183 1.284,0.062 0.256,0.09 0.181,0.485 0.123,0.735 -0.138,0.207 -0.643,0.049 -0.797,0.244 -0.753,1.256 0.699,1.951 0.429,2.997 -0.063,0.249 -0.655,0.506 -0.673,0.795 -0.034,0.563 1.289,0.873 0.735,1.715 -0.939,0.17 -0.905,-1.17 -1.835,-0.613 0.192,0.426 0.294,1.066 0.55,1.592 0.065,0.133 0.235,0.238 0.367,0.427 0.267,0.391 0.602,1.2 1.163,1.348 0.195,0.051 0.45,-0.072 0.674,-0.06 0.428,0.017 0.969,0.355 1.345,0 0.149,-0.467 -0.164,-0.916 -0.245,-1.348 0.204,-0.227 0.519,-0.096 0.673,0 C 0.514,4.041 0.297,4.428 0.49,5.02 0.741,5.791 1.745,6.023 2.509,6.611 2.773,6.814 2.784,7.1 2.999,7.346 3.495,7.916 4.29,8.143 4.835,8.445 5.224,8.662 5.598,9.369 6.06,8.754"
             style="fill:#ffffff;fill-opacity:1;fill-rule:evenodd;stroke:none"
             id="path88" />
        </g>
        <g
           id="g90"
           transform="translate(93.2754,71.9956)">
          <path
             d="M 0,0 C 0.708,-0.918 -0.897,-1.6 -1.529,-0.98 -1.291,-0.346 -0.849,0.512 0,0"
             style="fill:#d1cbc5;fill-opacity:1;fill-rule:evenodd;stroke:none"
             id="path92" />
        </g>
        <g
           id="g94"
           transform="translate(85.749,69.4258)">
          <path
             d="M 0,0 C 0.305,-0.227 0.19,-1.125 0.122,-1.529 -0.357,-1.404 -0.137,-0.389 0,0"
             style="fill:#7b7b7d;fill-opacity:1;fill-rule:evenodd;stroke:none"
             id="path96" />
        </g>
        <g
           id="g98"
           transform="translate(86.1768,65.7539)">
          <path
             d="M 0,0 H 0.185 C 0.345,-0.49 0.593,-1.412 0.308,-1.959 -0.31,-1.771 -0.123,-0.582 0,0"
             style="fill:#7b7b7d;fill-opacity:1;fill-rule:evenodd;stroke:none"
             id="path100" />
        </g>
        <g
           id="g102"
           transform="translate(125.2832,62.6934)">
          <path
             d="M 0,0 C -0.12,0.58 -0.139,1.883 0.429,1.775 0.551,1.145 0.501,0.207 0,0"
             style="fill:#7b7b7d;fill-opacity:1;fill-rule:evenodd;stroke:none"
             id="path104" />
        </g>
        <g
           id="g106"
           transform="translate(86.7891,63.0605)">
          <path
             d="M 0,0 C 0.54,-0.088 0.428,-1.1 0.429,-1.529 -0.144,-1.482 -0.259,-0.49 0,0"
             style="fill:#7b7b7d;fill-opacity:1;fill-rule:evenodd;stroke:none"
             id="path108" />
        </g>
        <g
           id="g110"
           transform="translate(125.1611,62.4473)">
          <path
             d="m 0,0 c 0.046,-0.799 -0.064,-1.443 -0.551,-1.711 -0.13,-0.443 -0.034,-1.109 -0.612,-1.103 -0.1,0.732 0.186,1.078 0.55,1.347 0.09,0.543 0.041,1.225 0.428,1.467 z"
             style="fill:#7b7b7d;fill-opacity:1;fill-rule:evenodd;stroke:none"
             id="path112" />
        </g>
        <g
           id="g114"
           transform="translate(87.2783,61.4082)">
          <path
             d="m 0,0 c 0.578,0.008 0.553,-0.592 0.612,-1.102 0.351,-0.261 0.612,-0.613 0.613,-1.224 0.045,-0.219 0.292,-0.237 0.427,-0.367 0.073,-0.703 0.661,-0.891 0.797,-1.53 1.355,-1.705 2.929,-3.189 4.528,-4.65 0.69,-0.045 0.779,-0.69 1.469,-0.734 0.14,-0.188 0.297,-0.356 0.428,-0.551 0.596,0.004 0.972,-0.211 1.163,-0.613 0.522,-0.069 1.168,-0.016 1.163,-0.612 -1.151,-0.152 -1.292,0.707 -2.263,0.735 -0.128,0.119 -0.235,0.255 -0.308,0.427 -0.258,-0.011 -0.395,0.096 -0.612,0.123 C 7.833,-9.977 7.722,-9.781 7.589,-9.607 7.362,-9.57 7.205,-9.463 6.977,-9.426 5.855,-8.26 4.33,-7.5 3.488,-6.059 3.105,-5.787 2.902,-5.338 2.509,-5.08 2.473,-4.893 2.38,-4.76 2.326,-4.59 1.877,-4.02 1.359,-3.516 1.163,-2.693 0.838,-2.406 0.506,-2.127 0.552,-1.469 0.19,-1.156 -0.125,-0.799 0,0"
             style="fill:#7b7b7d;fill-opacity:1;fill-rule:evenodd;stroke:none"
             id="path116" />
        </g>
        <g
           id="g118"
           transform="translate(123.875,59.3887)">
          <path
             d="m 0,0 c 0.166,-0.482 -0.158,-0.92 -0.489,-1.102 -0.021,-0.712 -0.676,-0.791 -0.735,-1.468 -1.665,-1.823 -3.14,-3.834 -5.447,-5.018 -0.181,-0.084 -0.254,-0.277 -0.367,-0.43 -0.522,0.053 -0.745,-0.5 -1.101,-0.671 -0.212,-0.104 -0.474,-0.03 -0.674,-0.124 -0.361,-0.167 -0.706,-0.716 -1.469,-0.611 -0.284,-0.353 -0.874,-0.709 -1.53,-0.49 0,0.568 0.774,0.56 1.225,0.49 0.361,0.352 0.743,0.686 1.469,0.672 0.217,0.152 0.312,0.422 0.551,0.551 0.23,-0.047 0.293,0.076 0.489,0.062 0.329,0.221 0.519,0.582 1.04,0.612 0.188,0.117 0.278,0.336 0.43,0.49 1.961,1.098 3.266,2.851 4.772,4.406 -0.039,0.244 0.163,0.246 0.123,0.49 0.174,0.09 0.261,0.27 0.489,0.305 0.183,0.756 0.672,1.205 0.98,1.836 z"
             style="fill:#7b7b7d;fill-opacity:1;fill-rule:evenodd;stroke:none"
             id="path120" />
        </g>
        <g
           id="g122"
           transform="translate(98.6006,49.9648)">
          <path
             d="M 0,0 C 0.695,0.02 1.339,-0.008 1.591,-0.428 1.059,-0.533 0.012,-0.621 0,0"
             style="fill:#7b7b7d;fill-opacity:1;fill-rule:evenodd;stroke:none"
             id="path124" />
        </g>
        <g
           id="g126"
           transform="translate(102.3955,49.0469)">
          <path
             d="M 0,0 C -0.379,-0.467 -1.573,-0.211 -1.898,0.123 -1.551,0.49 -0.232,0.348 0,0"
             style="fill:#7b7b7d;fill-opacity:1;fill-rule:evenodd;stroke:none"
             id="path128" />
        </g>
        <g
           id="g130"
           transform="translate(111.3916,49.1699)">
          <path
             d="m 0,0 c -0.473,-0.609 -2.02,-0.143 -2.816,-0.43 -0.346,-0.472 -0.93,-0.359 -1.652,-0.304 -1.202,0.086 -2.752,-0.252 -3.489,0.181 0.764,0.162 1.681,-0.058 2.693,0 0.37,0.022 0.672,0.246 1.04,0.307 0.421,0.068 0.925,-0.098 1.347,0 0.211,0.049 0.318,0.277 0.551,0.367 C -1.565,0.412 -0.568,0.439 0,0"
             style="fill:#7b7b7d;fill-opacity:1;fill-rule:evenodd;stroke:none"
             id="path132" />
        </g>
        <g
           id="g134"
           transform="translate(126.0693,68.6152)">
          <path
             d="m 0,0 c 0,-11.125 -9.02,-20.145 -20.146,-20.145 -11.124,0 -20.144,9.02 -20.144,20.145 0,11.125 9.02,20.146 20.144,20.146 C -9.02,20.146 0,11.125 0,0 Z"
             style="fill:none;stroke:#d1cbc5;stroke-width:1.5;stroke-linecap:butt;stroke-linejoin:miter;stroke-miterlimit:4;stroke-dasharray:none;stroke-opacity:1"
             id="path136" />
        </g>
        <g
           id="g138"
           transform="translate(126.0693,68.6152)">
          <path
             d="m 0,0 c 0,-11.125 -9.02,-20.145 -20.146,-20.145 -11.124,0 -20.144,9.02 -20.144,20.145 0,11.125 9.02,20.146 20.144,20.146 C -9.02,20.146 0,11.125 0,0 Z"
             style="fill:none;stroke:#7b7b7d;stroke-width:0.5;stroke-linecap:butt;stroke-linejoin:miter;stroke-miterlimit:4;stroke-dasharray:none;stroke-opacity:1"
             id="path140" />
        </g>
        <g
           id="g142"
           transform="translate(29.375,61.0234)">
          <path
             d="M 0,0 V 33.75 H -12 V -0.656 h 0.016 C -11.662,-9.83 -4.341,-19.25 6.159,-19.25 L 6.154,-7.004 C 6.216,-6.941 0,-6.5 0,0"
             style="fill:#f29013;fill-opacity:1;fill-rule:nonzero;stroke:none"
             id="path144" />
        </g>
        <g
           id="g146"
           transform="translate(38.3125,45.2109)">
          <path
             d="m 0,0 c 6.188,0 14.563,6.875 14.563,12.813 v 23.499 h 3.25 c 0,0 -0.181,-18.062 -0.125,-23.374 0.062,-6 -7.11,-16.188 -17.672,-16.188"
             style="fill:#f29013;fill-opacity:1;fill-rule:nonzero;stroke:none"
             id="path148" />
        </g>
        <g
           id="g150"
           transform="translate(105.875,47.7734)">
          <path
             d="m 0,0 c -11.529,0 -20.875,9.346 -20.875,20.875 0,11.529 9.346,20.875 20.875,20.875 5.236,0 10.009,-1.942 13.674,-5.127 l 4.035,4.037 c -4.692,4.173 -10.871,6.715 -17.646,6.715 -14.67,0 -26.563,-11.893 -26.563,-26.562 0,-14.67 11.893,-26.563 26.563,-26.563 6.743,0 12.895,2.518 17.58,6.656 l -4.1,4.1 C 9.896,1.891 5.173,0 0,0"
             style="fill:#f29013;fill-opacity:1;fill-rule:nonzero;stroke:none"
             id="path152" />
        </g>
        <g
           id="g154"
           transform="translate(43.7871,94.6479)">
          <path
             d="m 0,0 v -3.043 h 19.629 v -48.665 h 7.75 V -3.043 -0.375 0 Z"
             style="fill:#7b7b7d;fill-opacity:1;fill-rule:nonzero;stroke:none"
             id="path156" />
        </g>
        <path
           d="M 90.625,87.648 H 74 v 7 h 16.625 z"
           style="fill:#7b7b7d;fill-opacity:1;fill-rule:nonzero;stroke:none"
           id="path158" />
        <text
           xml:space="preserve"
           transform="matrix(1,0,0,-1,17.5,27.9141)"
           style="font-variant:normal;font-weight:bold;font-stretch:normal;font-size:12px;font-family:Garamond;-inkscape-font-specification:Garamond-Bold;writing-mode:lr-tb;fill:#7b7b7d;fill-opacity:1;fill-rule:nonzero;stroke:none"
           id="text162"><tspan
             x="0 9.1920004 23.76 37.571999 51.132 61.692001 74.375999 87.192001 96.384003"
             y="0"
             sodipodi:role="line"
             id="tspan160">INDUSTRIE</tspan></text>
      </g>
    </g>
  </g>
</svg>
