<svg xmlns="http://www.w3.org/2000/svg" width="256" height="92.449" viewBox="0 0 256 92.449"><defs><style>.a{fill:#6ec800;}</style></defs><path class="a" d="M454.872,288.807v5.859h8.2v5.272h-16.4v-16.4h35.138V264.8H434.964a7.024,7.024,0,0,0-7.024,7.024v39.824a7.024,7.024,0,0,0,7.024,7.024h39.824a7.024,7.024,0,0,0,7.024-7.024V288.807Z" transform="translate(-286.247 -245.504)"/><path class="a" d="M547.918,264.79H508.094a7.024,7.024,0,0,0-7.024,7.024v39.824a7.024,7.024,0,0,0,7.024,7.024h39.824a7.024,7.024,0,0,0,7.024-7.024V271.814a7.029,7.029,0,0,0-7.024-7.024M536.2,299.928H519.8v-16.4h16.4Z" transform="translate(-298.943 -245.502)"/><path class="a" d="M372.319,264.788,333.529,324.52H326.81l8.718,13.429,28.758-13.429h-8.413l9.892-15.23h19.313v9.371h18.743V264.78h-31.5Zm-.471,35.138,13.222-20.362v20.362Z" transform="translate(-268.69 -245.5)"/><path class="a" d="M278.76,314.619,295.015,289.6v25.023h22.5l38.791-59.74h6.074l-8.718-13.429L324.9,254.879h8.859L313.749,285.7V260.738H291.4L275.214,285.67V260.738H256.48v53.881Z" transform="translate(-256.48 -241.45)"/></svg>