<svg xmlns="http://www.w3.org/2000/svg" width="208.786" height="63.713" viewBox="0 0 208.786 63.713"><defs><style>.a{fill:#2056ae;}</style></defs><path class="a" d="M76.042,38.314c0-11.794-8.576-22.98-22.053-22.98C39.9,15.334,30.1,26.7,30.1,39.652a27.786,27.786,0,0,0,1.838,10.213l-1.47-.122H15.273V8.1c-.061-5.046-3-7.6-7.106-7.6S1,3.114,1,8.1V55.823a6.851,6.851,0,0,0,7.167,6.991H30.4c3.8,0,6.248-1.824,6.922-4.864a23.619,23.619,0,0,0,16.54,6.262c10.414,0,21.441-4.256,21.441-10.943a5.669,5.669,0,0,0-5.7-5.836c-3.063,0-7.229,4.256-13.967,4.256-8.76,0-10.9-4.681-10.9-7.539H69.365c4.288,0,6.738-1.094,6.738-5.836M44.678,34.849c0-3.04,3.492-8.086,8.821-8.086s8.883,5.046,8.883,8.086h-17.7ZM104.16,15.395c-5.82,0-9.5,1.824-11.639,5.168a7.39,7.39,0,0,0-6.861-4.256,6.6,6.6,0,0,0-6.738,6.931V56.31A6.689,6.689,0,0,0,85.66,63.3c4.043,0,6.738-3.161,6.738-7.052v-21.4c0-4.62,2.879-8.086,7.6-8.086s7.6,3.465,7.6,8.086V56.31a6.689,6.689,0,0,0,6.738,6.991c4.043,0,6.739-3.04,6.739-6.991V31.2c0-10.943-7.535-15.807-16.908-15.807m53.173,34.957h-14.4l18.684-24.926c1.225-1.52,1.838-2.614,1.838-3.83a4.807,4.807,0,0,0-1.225-3.222c-1.348-1.337-2.7-1.7-5.207-1.7H130.869c-4.411,0-7.229,1.824-7.229,6.262,0,4.256,2.818,6.262,7.167,6.262h11.884L125.356,53.087c-2.083,2.8-2.144,4.012-2.144,5.046a4.5,4.5,0,0,0,2.022,3.83,8.186,8.186,0,0,0,4.533.973h27.567c4.411,0,7.229-1.824,7.229-6.262,0-4.5-2.879-6.383-7.229-6.383" transform="translate(-1 -0.5)"/><path class="a" d="M305.064,58.691c-3.194,0-7.537,4.471-14.564,4.471-9.134,0-11.37-4.918-11.37-7.921h25.678c4.471,0,6.9-1.278,6.9-6.2,0-12.392-8.943-24.145-23-24.145C274.02,24.9,263.8,36.845,263.8,50.451c0,14.372,9.582,25.742,24.912,25.742,10.667,0,22.229-4.471,22.229-11.5a5.867,5.867,0,0,0-5.877-6.068M288.328,36.909c5.557,0,9.2,5.3,9.2,8.5h-18.4c0-3.194,3.641-8.5,9.2-8.5" transform="translate(-102.921 -12.544)"/></svg>